<svg width="60" height="55" viewBox="0 0 60 55" fill="none" xmlns="http://www.w3.org/2000/svg">
<path d="M15.112 54.76C11.8693 54.76 9.00664 54.152 6.52397 52.936C4.09197 51.6693 2.0653 49.972 0.44397 47.844L7.43597 41.156C8.34797 42.4733 9.4373 43.4867 10.704 44.196C12.0213 44.8547 13.4653 45.184 15.036 45.184C16.6066 45.184 17.9746 44.8547 19.14 44.196C20.356 43.5373 21.268 42.5747 21.876 41.308C22.5346 40.0413 22.864 38.496 22.864 36.672V0.571991H33.276V36.064C33.276 39.8133 32.516 43.1067 30.996 45.944C29.5266 48.7307 27.424 50.9093 24.688 52.48C22.0026 54 18.8106 54.76 15.112 54.76Z" fill="white"/>
<path d="M48.11 54.46C45.8713 54.46 43.8473 53.954 42.038 52.942C40.2593 51.8993 38.8333 50.504 37.76 48.756C36.7173 46.9773 36.196 44.9993 36.196 42.822C36.196 40.6447 36.7173 38.6973 37.76 36.98C38.8026 35.232 40.2286 33.852 42.038 32.84C43.8473 31.7973 45.856 31.276 48.064 31.276C50.3333 31.276 52.3573 31.7973 54.136 32.84C55.9453 33.852 57.3713 35.232 58.414 36.98C59.4566 38.6973 59.978 40.6447 59.978 42.822C59.978 44.9993 59.4566 46.9773 58.414 48.756C57.3713 50.504 55.9453 51.8993 54.136 52.942C52.3573 53.954 50.3486 54.46 48.11 54.46ZM48.064 48.848C49.1986 48.848 50.1953 48.6027 51.054 48.112C51.9433 47.5907 52.618 46.8853 53.078 45.996C53.5686 45.076 53.814 44.0333 53.814 42.868C53.814 41.7027 53.5686 40.6753 53.078 39.786C52.5873 38.8967 51.9126 38.2067 51.054 37.716C50.1953 37.1947 49.1986 36.934 48.064 36.934C46.96 36.934 45.9786 37.1947 45.12 37.716C44.2613 38.2067 43.5866 38.8967 43.096 39.786C42.6053 40.6753 42.36 41.7027 42.36 42.868C42.36 44.0333 42.6053 45.076 43.096 45.996C43.5866 46.8853 44.2613 47.5907 45.12 48.112C45.9786 48.6027 46.96 48.848 48.064 48.848Z" fill="white"/>
</svg>
