<svg width="76" height="58" viewBox="0 0 76 58" fill="none" xmlns="http://www.w3.org/2000/svg">
<path d="M16.692 57.33C12.402 57.33 8.827 56.212 5.967 53.976C3.133 51.74 1.144 48.724 0 44.928L9.282 42.705C9.568 44.291 10.4 45.656 11.778 46.8C13.156 47.944 14.677 48.516 16.341 48.516C17.433 48.516 18.59 48.23 19.812 47.658C21.034 47.06 21.944 46.111 22.542 44.811C22.906 43.979 23.114 42.991 23.166 41.847C23.244 40.677 23.283 39.325 23.283 37.791V0H32.799V37.791C32.799 39.533 32.786 41.067 32.76 42.393C32.76 43.693 32.63 44.928 32.37 46.098C32.136 47.242 31.655 48.425 30.927 49.647C29.393 52.299 27.391 54.249 24.921 55.497C22.451 56.719 19.708 57.33 16.692 57.33Z" fill="white"/>
<path d="M56.978 57.18C53.306 57.18 50.0987 56.3527 47.356 54.698C44.6133 53.0433 42.4827 50.7653 40.964 47.864C39.468 44.94 38.72 41.5853 38.72 37.8C38.72 33.9467 39.4907 30.5693 41.032 27.668C42.5733 24.7667 44.7153 22.5 47.458 20.868C50.2007 19.236 53.374 18.42 56.978 18.42C60.6727 18.42 63.8913 19.2473 66.634 20.902C69.3767 22.5567 71.5073 24.846 73.026 27.77C74.5447 30.6713 75.304 34.0147 75.304 37.8C75.304 41.608 74.5333 44.974 72.992 47.898C71.4733 50.7993 69.3427 53.0773 66.6 54.732C63.8573 56.364 60.65 57.18 56.978 57.18ZM56.978 49.496C60.242 49.496 62.6673 48.408 64.254 46.232C65.8407 44.056 66.634 41.2453 66.634 37.8C66.634 34.2413 65.8293 31.408 64.22 29.3C62.6107 27.1693 60.1967 26.104 56.978 26.104C54.7793 26.104 52.966 26.6027 51.538 27.6C50.1327 28.5747 49.09 29.946 48.41 31.714C47.73 33.4593 47.39 35.488 47.39 37.8C47.39 41.3587 48.1947 44.2033 49.804 46.334C51.436 48.442 53.8273 49.496 56.978 49.496Z" fill="white"/>
</svg>
